<?xml version="1.0" encoding="utf-8"?>
<!-- Generator: Adobe Illustrator 21.1.0, SVG Export Plug-In . SVG Version: 6.00 Build 0)  -->
<svg version="1.1" id="圖層_1" xmlns="http://www.w3.org/2000/svg" xmlns:xlink="http://www.w3.org/1999/xlink" x="0px" y="0px"
	 viewBox="0 0 180 70" enable-background="new 0 0 180 70" xml:space="preserve">
<g transform="matrix(1 0 0 -1 0 21.621886)">
	<path fill="#029AC5" d="M36.28,17.62c0-12.42,0.02-22.57,0.04-22.54c0.04,0.03,0.95,2.13,2.03,4.68l1.99,4.63h3.46h3.47l1.05-2.45
		c0.57-1.35,1.09-2.52,1.14-2.59c0.06-0.09,0.09,0.67,0.09,2.48l0.01,2.61h4.31h4.31l0.65-1.87c0.37-1.04,0.69-1.86,0.71-1.82
		c0.03,0.03,0.34,0.86,0.68,1.85l0.63,1.8l19.34,0.03l19.34,0.02V3.49c0-0.52,0.03-0.94,0.07-0.94c0.04,0,0.27,0.14,0.51,0.32
		c0.71,0.51,1.79,1.02,2.71,1.27l0.86,0.23l6.91,0.01h6.91l1.06-2.5c0.59-1.37,1.1-2.53,1.15-2.59c0.04-0.04,0.08,0.89,0.08,2.53
		v2.61l3.63-0.02l3.63-0.03l0.95-1.46l0.94-1.47l0.03,1.49l0.02,1.49h3.61h3.61v-8.39v-8.39h-3.61h-3.6l-0.93,1.47
		c-0.51,0.8-0.95,1.46-0.99,1.47c-0.04,0-0.07-0.66-0.07-1.47v-1.47l-5.28,0.02l-5.28,0.03l-0.5,1.25l-0.5,1.25L114-9.78l-1.46,0.02
		l-0.5-1.27l-0.51-1.28h-4.04c-3.92,0-4.08,0.01-4.81,0.21c-0.9,0.23-2.02,0.76-2.61,1.2c-0.23,0.19-0.44,0.33-0.46,0.33
		c-0.03,0-0.04-0.4-0.04-0.89v-0.89l-5.42,0.01h-5.43l-1.03,1.29c-0.56,0.71-1.05,1.29-1.09,1.29c-0.04,0-0.07-0.58-0.07-1.29v-1.29
		l-20.13,0.02l-20.13,0.03l-0.51,1.25l-0.52,1.25h-1.46H42.3l-0.51-1.25l-0.5-1.25l-2.51-0.03l-2.51-0.02v-27.31v-7.16h107.18
		c-0.02,9.06-0.04,13.58-0.06,13.57c-0.04-0.01-0.41-0.2-0.83-0.4c-1.53-0.77,0.46-0.7-20.21-0.72l-18.38-0.02l-1.07,1.31
		l-1.07,1.32l-0.03-1.31l-0.03-1.32H98.3h-3.48v2.23c0,1.23-0.02,2.23-0.04,2.23c-0.02,0-0.33-0.1-0.69-0.21
		c-0.87-0.29-1.87-0.41-3.48-0.41h-1.32v-1.92v-1.92h-5.31h-5.3l-0.87,1.14c-0.48,0.62-0.92,1.19-0.97,1.25
		c-0.09,0.1-0.29-0.11-1.07-1.13l-0.96-1.26h-8.83h-8.82v8.39v8.39h8.86l8.85-0.01l0.94-1.24c0.52-0.68,0.96-1.24,0.99-1.25
		c0.04,0,0.49,0.56,1.02,1.25l0.95,1.25h32.34h32.34V11.3v8.77H36.28L36.28,17.62z"/>
	<path fill="#029AC5" d="M41.64,2.18c-0.04-0.12-1.27-2.96-2.71-6.35L36.3-10.3l1.79,0.02l1.79,0.03l0.5,1.25l0.5,1.25l2.86,0.03
		l2.86,0.02l0.52-1.29l0.53-1.29h1.81c0.99,0,1.8,0.03,1.8,0.07c0,0.04-1.2,2.88-2.69,6.34L45.9,2.37h-2.09
		C41.72,2.37,41.71,2.37,41.64,2.18z M44.62-2.8c0.43-1.05,0.79-1.97,0.82-2.03c0.04-0.09-0.33-0.12-1.67-0.12
		c-1.6,0-1.71,0.01-1.66,0.16c0.41,1.12,1.62,4.02,1.67,3.96C43.82-0.86,44.19-1.75,44.62-2.8z"/>
	<path fill="#029AC5" d="M51.63-3.96v-6.34h1.61h1.61l0.02,4.53l0.03,4.52l1.61-4.53l1.61-4.52l1.42,0.02l1.42,0.03l1.62,4.53
		l1.62,4.53l0.03-4.56l0.02-4.55h1.61h1.61v6.34v6.34h-2.53h-2.53L61-1.53c-0.74-2.15-1.38-3.94-1.42-3.98s-0.7,1.71-1.45,3.88
		l-1.38,3.95l-2.56,0.03l-2.55,0.02L51.63-3.96z"/>
	<path fill="#029AC5" d="M69.54,2.31c-0.04-0.03-0.06-2.88-0.06-6.34v-6.27h5.18h5.18v1.43v1.43h-3.53h-3.53v1.07v1.07h3.44h3.44
		v1.38v1.38h-3.44h-3.44v1.03v1.03h3.53h3.53v1.43v1.43h-5.11C71.9,2.37,69.57,2.35,69.54,2.31z"/>
	<path fill="#029AC5" d="M81.62-3.95v-6.35h1.61h1.61v2.23v2.23h0.62h0.62l1.89-2.23l1.89-2.23h1.99h2l-1.98,2.23
		c-1.1,1.23-2,2.27-2.02,2.3c-0.01,0.04,0.2,0.14,0.46,0.22c0.61,0.2,1.45,0.75,1.8,1.2c0.82,1.02,1.12,2.45,0.79,3.71
		c-0.19,0.71-0.44,1.17-0.92,1.69c-0.48,0.52-0.97,0.82-1.74,1.08c-0.53,0.18-0.77,0.19-4.59,0.22l-4.04,0.03V-3.95z M89.1-0.71
		c0.43-0.25,0.64-0.57,0.65-0.99c0.03-0.5-0.16-0.89-0.54-1.12c-0.3-0.2-0.43-0.21-2.35-0.23l-2.03-0.03v1.3v1.3l1.99-0.03
		C88.61-0.53,88.83-0.54,89.1-0.71z"/>
	<path fill="#029AC5" d="M94.29-3.96v-6.34h1.61h1.61v6.34v6.34h-1.61h-1.61V-3.96z"/>
	<path fill="#029AC5" d="M103.87,2.24c-1.95-0.35-3.29-1.3-4.11-2.93c-1.01-2.02-0.94-5.06,0.18-7.02c0.82-1.46,2.55-2.45,4.48-2.55
		l0.8-0.05l0.64,1.42l0.64,1.41l-0.95,0.05c-1.48,0.09-2.1,0.37-2.7,1.27c-0.45,0.65-0.57,1.26-0.52,2.47
		c0.05,1.15,0.29,1.75,0.97,2.36c0.71,0.64,0.97,0.7,3.41,0.75l2.12,0.04v1.46v1.46l-2.16-0.01C105.32,2.36,104.27,2.31,103.87,2.24
		z"/>
	<path fill="#029AC5" d="M111.87,2.18c-0.04-0.12-1.27-2.96-2.71-6.35l-2.62-6.13l1.79,0.02l1.79,0.03l0.5,1.25l0.5,1.25l2.86,0.03
		l2.86,0.02l0.52-1.29l0.53-1.29h1.81c1.7,0,1.82,0.01,1.77,0.16c-0.04,0.08-1.25,2.94-2.7,6.34l-2.65,6.18h-2.08
		C111.96,2.37,111.96,2.37,111.87,2.18z M114.88-2.87l0.82-2.03l-1.66-0.03c-0.91-0.01-1.68,0-1.7,0.02
		c-0.03,0.03,0.33,0.96,0.79,2.1c0.46,1.13,0.85,2.03,0.88,2.01C114.04-0.83,114.42-1.77,114.88-2.87z"/>
	<path fill="#029AC5" d="M121.87-3.96v-6.34h1.61h1.61l0.02,4l0.03,4l2.54-3.98l2.54-3.97l1.99-0.03l1.98-0.02l-0.02,6.31
		l-0.03,6.32l-1.58,0.03l-1.59,0.02l-0.02-3.89l-0.03-3.89l-2.5,3.89l-2.5,3.89h-2.03h-2.03V-3.96z"/>
	<path fill="#029AC5" d="M59.3-26.01v-6.34h5.13h5.13v1.43v1.43h-3.53h-3.53v1.07v1.07h3.44h3.44v1.38v1.38h-3.44h-3.44v0.98v0.98
		h3.53h3.53v1.47v1.47h-5.13H59.3V-26.01z"/>
	<path fill="#029AC5" d="M69.83-19.71c0-0.03,1.12-1.45,2.5-3.18c1.54-1.93,2.48-3.17,2.44-3.23c-0.06-0.11-4.56-5.76-4.83-6.06
		c-0.12-0.15-0.04-0.16,1.87-0.16l2,0.01l1.43,1.91c0.79,1.05,1.45,1.91,1.48,1.91c0.03,0.01,0.71-0.86,1.52-1.91l1.46-1.92h2.03
		h2.04L83.51-32c-3.37,4.22-4.75,5.97-4.75,6.04c0,0.04,1.11,1.45,2.45,3.12s2.45,3.06,2.45,3.11c0,0.04-0.86,0.06-1.91,0.06h-1.91
		l-0.35-0.42c-0.2-0.24-0.87-1.1-1.49-1.92c-0.63-0.83-1.17-1.5-1.2-1.5c-0.03,0.01-0.71,0.87-1.52,1.92l-1.45,1.92h-2
		C70.74-19.67,69.83-19.69,69.83-19.71z"/>
	<path fill="#029AC5" d="M84.03-26v-6.35h1.61h1.61v2.04v2.04l2.48,0.04c2.28,0.04,2.52,0.05,3,0.23c1.98,0.73,3.04,2.55,2.74,4.68
		c-0.23,1.69-1.2,2.86-2.8,3.4c-0.53,0.18-0.77,0.19-4.59,0.22l-4.04,0.03L84.03-26z M91.74-22.88c0.35-0.32,0.49-0.65,0.49-1.12
		c0-0.51-0.18-0.86-0.55-1.13c-0.29-0.2-0.37-0.21-2.37-0.23l-2.08-0.03V-24v1.39l2.13-0.03l2.13-0.03L91.74-22.88z"/>
	<path fill="#029AC5" d="M96.88-26v-6.35h1.61h1.61v2.23v2.23h0.61h0.62l1.87-2.22l1.87-2.23h1.99c1.09-0.01,1.98,0.01,1.98,0.03
		s-0.9,1.04-2.01,2.29L105-27.76l0.49,0.15c0.27,0.08,0.65,0.25,0.87,0.37c0.54,0.31,1.29,1.13,1.54,1.7
		c0.87,1.9,0.16,4.32-1.54,5.22c-1.12,0.59-1.1,0.59-5.49,0.62l-4,0.03L96.88-26z M104.38-22.75c0.37-0.2,0.62-0.63,0.62-1.1
		c0-0.51-0.22-0.87-0.67-1.09c-0.33-0.16-0.56-0.18-2.3-0.18h-1.94v1.25v1.25h2.01C103.75-22.62,104.17-22.64,104.38-22.75z"/>
	<path fill="#029AC5" d="M109.55-26.01v-6.34h5.18h5.18v1.43v1.43h-3.57h-3.57v1.07v1.07h3.48h3.49l-0.03,1.37l-0.03,1.36
		l-3.45,0.03l-3.46,0.02v0.98v0.98l3.55,0.02l3.54,0.03v1.43v1.43l-5.15,0.03l-5.16,0.02V-26.01z"/>
	<path fill="#029AC5" d="M124.4-19.76c-1.55-0.22-2.77-1.13-3.27-2.44c-0.23-0.6-0.31-1.84-0.16-2.48c0.33-1.42,1.3-2.36,2.75-2.66
		c0.26-0.05,1.32-0.1,2.39-0.1c2.13,0,2.42-0.05,2.66-0.53c0.18-0.34,0.18-0.8,0-1.06c-0.31-0.46-0.39-0.46-4.1-0.46h-3.44v-1.43
		v-1.43h3.64c2.93,0,3.74,0.03,4.2,0.13c1.24,0.29,2.19,1.05,2.71,2.17c0.28,0.58,0.29,0.64,0.29,1.76c0,1.09-0.02,1.2-0.26,1.72
		c-0.32,0.71-1.02,1.36-1.7,1.62c-0.77,0.29-1.48,0.37-3.42,0.37c-2,0-2.22,0.04-2.47,0.54c-0.22,0.44-0.17,0.79,0.17,1.12l0.3,0.3
		h2.95c2.27,0,2.97,0.03,3.03,0.12c0.15,0.23,1.19,2.6,1.19,2.71c0,0.1-0.67,0.12-3.5,0.11C126.43-19.69,124.65-19.72,124.4-19.76z"
		/>
	<path fill="#029AC5" d="M135.95-19.76c-0.74-0.12-1.53-0.44-1.99-0.79c-1.15-0.87-1.71-2.31-1.47-3.81
		c0.24-1.54,1.14-2.55,2.63-2.95c0.39-0.1,1.02-0.13,2.46-0.13c1.16,0,2.04-0.04,2.2-0.1c0.62-0.23,0.87-0.78,0.62-1.37
		c-0.24-0.58-0.32-0.59-4.16-0.59h-3.39v-1.44v-1.43l3.86,0.03c3.72,0.04,3.87,0.04,4.38,0.23c1.04,0.39,1.66,0.92,2.21,1.89
		c0.33,0.58,0.46,1.27,0.41,2.25c-0.03,0.68-0.08,0.93-0.28,1.33c-0.37,0.76-0.79,1.2-1.52,1.55c-0.85,0.41-1.45,0.49-3.66,0.49
		c-1.58,0-1.9,0.03-2.12,0.15c-0.49,0.29-0.62,1.07-0.23,1.52l0.21,0.25l3.05,0.04l3.05,0.04l0.58,1.29
		c0.31,0.71,0.61,1.33,0.66,1.38c0.04,0.04,0.08,0.12,0.08,0.15C143.55-19.65,136.5-19.67,135.95-19.76z"/>
</g>
</svg>
