<?xml version="1.0" encoding="utf-8"?>
<!-- Generator: Adobe Illustrator 21.1.0, SVG Export Plug-In . SVG Version: 6.00 Build 0)  -->
<svg version="1.1" id="圖層_1" xmlns="http://www.w3.org/2000/svg" xmlns:xlink="http://www.w3.org/1999/xlink" x="0px" y="0px"
	 viewBox="0 0 180 70" enable-background="new 0 0 180 70" xml:space="preserve">
<g id="Lager_2">
	<g id="Layer_1">
		<path fill="#FFB3C7" d="M34.9,5.88H145.1c9.34,0,16.9,7.57,16.9,16.9v24.44c0,9.34-7.57,16.9-16.9,16.9H34.9
			c-9.34,0-16.9-7.57-16.9-16.9V22.78C18,13.44,25.57,5.88,34.9,5.88z"/>
		<path d="M133.31,31.4c-4.07-2.77-9.62-1.72-12.39,2.35c-2.77,4.07-1.72,9.62,2.35,12.39c3.03,2.06,7.01,2.06,10.04,0v1.08h5.06
			v-16.9h-5.06V31.4z M128.71,43.12c-2.4-0.13-4.25-2.18-4.12-4.58c0.13-2.4,2.18-4.25,4.58-4.12c2.31,0.12,4.12,2.03,4.12,4.35
			C133.23,41.24,131.17,43.18,128.71,43.12z"/>
		<rect x="58.61" y="22.78" width="5.3" height="24.44"/>
		<path d="M110.38,29.86c-2.02-0.12-3.97,0.76-5.21,2.36v-1.9h-5.04v16.9h5.1v-8.88c-0.15-1.96,1.32-3.68,3.28-3.83
			c0.17-0.01,0.35-0.01,0.52,0c2.22,0,3.5,1.33,3.5,3.79v8.92h5.06V36.47C117.59,32.54,114.46,29.86,110.38,29.86z"/>
		<path d="M79.92,31.4c-4.07-2.77-9.62-1.72-12.39,2.35s-1.72,9.62,2.35,12.39c3.03,2.06,7.01,2.06,10.04,0v1.08h5.06v-16.9h-5.06
			V31.4z M75.32,43.12c-2.4-0.13-4.25-2.18-4.12-4.58c0.13-2.4,2.18-4.25,4.58-4.12c2.31,0.12,4.12,2.03,4.12,4.35
			C79.84,41.24,77.78,43.18,75.32,43.12L75.32,43.12z"/>
		<path d="M92.81,32.52v-2.2h-5.18v16.9h5.19v-7.89c0-2.66,2.89-4.09,4.89-4.09c0.02,0,0.04,0,0.06,0v-4.92
			C95.87,30.27,94.05,31.08,92.81,32.52z"/>
		<path d="M143.75,41.22c-1.75,0-3.18,1.42-3.18,3.18c0,1.75,1.42,3.18,3.18,3.18c1.75,0,3.18-1.42,3.18-3.18
			C146.92,42.65,145.5,41.23,143.75,41.22C143.75,41.22,143.75,41.22,143.75,41.22z"/>
		<path d="M54.96,22.78h-5.49c0.02,4.46-2.09,8.67-5.68,11.33l-2.17,1.63l8.43,11.49h6.93l-7.75-10.57
			C52.92,32.98,54.98,27.99,54.96,22.78z"/>
		<rect x="35.45" y="22.78" width="5.5" height="24.45"/>
	</g>
</g>
</svg>
