<?xml version="1.0" encoding="utf-8"?>
<!-- Generator: Adobe Illustrator 21.1.0, SVG Export Plug-In . SVG Version: 6.00 Build 0)  -->
<svg version="1.1" id="圖層_1" xmlns="http://www.w3.org/2000/svg" xmlns:xlink="http://www.w3.org/1999/xlink" x="0px" y="0px"
	 viewBox="0 0 180 70" enable-background="new 0 0 180 70" xml:space="preserve">
<g>
	<path fill="#231F20" d="M132.37,68.42v0.18h0.16c0.04,0,0.07-0.01,0.09-0.02c0.02-0.01,0.03-0.04,0.03-0.07s-0.01-0.05-0.03-0.07
		c-0.02-0.02-0.05-0.02-0.09-0.02H132.37z M132.54,68.29c0.09,0,0.15,0.02,0.2,0.06c0.05,0.04,0.07,0.09,0.07,0.16
		c0,0.06-0.02,0.1-0.06,0.14c-0.04,0.03-0.09,0.06-0.16,0.07l0.22,0.25h-0.17l-0.2-0.25h-0.07v0.25h-0.14v-0.67H132.54z
		 M132.5,69.19c0.08,0,0.15-0.02,0.22-0.05c0.07-0.03,0.13-0.07,0.18-0.12c0.05-0.05,0.09-0.11,0.12-0.18
		c0.03-0.07,0.04-0.14,0.04-0.22s-0.02-0.15-0.04-0.22c-0.03-0.07-0.07-0.13-0.12-0.18c-0.05-0.05-0.11-0.09-0.18-0.12
		c-0.07-0.03-0.14-0.04-0.22-0.04s-0.15,0.01-0.22,0.04c-0.07,0.03-0.13,0.07-0.18,0.12c-0.05,0.05-0.09,0.11-0.12,0.18
		c-0.03,0.07-0.04,0.14-0.04,0.22s0.01,0.15,0.04,0.22c0.03,0.07,0.07,0.13,0.12,0.18c0.05,0.05,0.11,0.09,0.18,0.12
		C132.34,69.18,132.42,69.19,132.5,69.19z M132.5,67.91c0.1,0,0.2,0.02,0.29,0.06c0.09,0.04,0.16,0.09,0.23,0.15
		c0.07,0.06,0.12,0.14,0.16,0.23c0.04,0.09,0.06,0.18,0.06,0.28c0,0.1-0.02,0.19-0.06,0.28c-0.04,0.09-0.09,0.16-0.16,0.23
		c-0.07,0.06-0.14,0.12-0.23,0.15c-0.09,0.04-0.18,0.06-0.29,0.06c-0.1,0-0.2-0.02-0.29-0.06c-0.09-0.04-0.17-0.09-0.23-0.15
		c-0.07-0.07-0.12-0.14-0.16-0.23c-0.04-0.09-0.06-0.18-0.06-0.28c0-0.1,0.02-0.19,0.06-0.28c0.04-0.09,0.09-0.16,0.16-0.23
		c0.07-0.07,0.14-0.12,0.23-0.15C132.3,67.93,132.39,67.91,132.5,67.91z M64.84,65.34c0-1.27,0.84-2.32,2.2-2.32
		c1.3,0,2.18,1,2.18,2.32c0,1.32-0.88,2.32-2.18,2.32C65.67,67.66,64.84,66.61,64.84,65.34z M70.71,65.34v-3.62h-1.58v0.88
		c-0.5-0.65-1.26-1.06-2.29-1.06c-2.03,0-3.63,1.59-3.63,3.81c0,2.21,1.59,3.81,3.63,3.81c1.03,0,1.79-0.41,2.29-1.06v0.88h1.58
		V65.34z M123.99,65.34c0-1.27,0.84-2.32,2.2-2.32c1.31,0,2.18,1,2.18,2.32c0,1.32-0.88,2.32-2.18,2.32
		C124.83,67.66,123.99,66.61,123.99,65.34z M129.87,65.34V58.8h-1.58v3.79c-0.5-0.65-1.26-1.06-2.29-1.06
		c-2.03,0-3.63,1.59-3.63,3.81c0,2.21,1.59,3.81,3.63,3.81c1.03,0,1.79-0.41,2.29-1.06v0.88h1.58V65.34z M90.28,62.94
		c1.02,0,1.67,0.64,1.84,1.76h-3.76C88.52,63.65,89.16,62.94,90.28,62.94z M90.31,61.53c-2.13,0-3.61,1.55-3.61,3.81
		c0,2.3,1.55,3.81,3.72,3.81c1.09,0,2.09-0.27,2.97-1.02l-0.77-1.17c-0.61,0.48-1.38,0.76-2.11,0.76c-1.02,0-1.94-0.47-2.17-1.78
		h5.39c0.02-0.2,0.03-0.39,0.03-0.61C93.74,63.08,92.34,61.53,90.31,61.53z M109.35,65.34c0-1.27,0.84-2.32,2.2-2.32
		c1.3,0,2.18,1,2.18,2.32c0,1.32-0.88,2.32-2.18,2.32C110.19,67.66,109.35,66.61,109.35,65.34z M115.22,65.34v-3.62h-1.58v0.88
		c-0.5-0.65-1.26-1.06-2.29-1.06c-2.03,0-3.63,1.59-3.63,3.81c0,2.21,1.59,3.81,3.63,3.81c1.03,0,1.79-0.41,2.29-1.06v0.88h1.58
		V65.34z M100.45,65.34c0,2.2,1.53,3.81,3.87,3.81c1.09,0,1.82-0.24,2.61-0.86L106.17,67c-0.59,0.43-1.21,0.65-1.9,0.65
		c-1.26-0.02-2.18-0.92-2.18-2.32c0-1.4,0.93-2.3,2.18-2.32c0.68,0,1.31,0.23,1.9,0.65l0.76-1.27c-0.79-0.62-1.52-0.86-2.61-0.86
		C101.98,61.53,100.45,63.14,100.45,65.34z M120.78,61.53c-0.91,0-1.5,0.43-1.91,1.06v-0.88h-1.56v7.25h1.58V64.9
		c0-1.2,0.52-1.87,1.55-1.87c0.32,0,0.65,0.05,0.99,0.18l0.49-1.49C121.55,61.59,121.1,61.53,120.78,61.53z M78.51,62.29
		c-0.76-0.5-1.8-0.76-2.96-0.76c-1.84,0-3.02,0.88-3.02,2.32c0,1.18,0.88,1.91,2.5,2.14l0.75,0.11c0.86,0.12,1.27,0.35,1.27,0.76
		c0,0.56-0.58,0.88-1.65,0.88c-1.09,0-1.88-0.35-2.41-0.76l-0.74,1.23c0.86,0.64,1.96,0.94,3.14,0.94c2.09,0,3.31-0.99,3.31-2.37
		c0-1.27-0.96-1.94-2.53-2.17l-0.74-0.11c-0.68-0.09-1.23-0.23-1.23-0.71c0-0.53,0.52-0.85,1.38-0.85c0.93,0,1.82,0.35,2.26,0.62
		L78.51,62.29z M98.85,61.53c-0.91,0-1.5,0.43-1.91,1.06v-0.88h-1.56v7.25h1.58V64.9c0-1.2,0.52-1.87,1.55-1.87
		c0.32,0,0.65,0.05,0.99,0.18l0.49-1.49C99.63,61.59,99.17,61.53,98.85,61.53z M85.4,61.71h-2.58v-2.2h-1.59v2.2h-1.47v1.44h1.47
		v3.31c0,1.68,0.65,2.68,2.52,2.68c0.68,0,1.47-0.21,1.97-0.56l-0.45-1.35c-0.47,0.27-0.99,0.41-1.4,0.41
		c-0.79,0-1.05-0.49-1.05-1.21v-3.27h2.58V61.71z M61.82,68.96v-4.55c0-1.71-1.09-2.87-2.85-2.88c-0.93-0.02-1.88,0.27-2.55,1.29
		c-0.5-0.8-1.29-1.29-2.4-1.29c-0.77,0-1.53,0.23-2.12,1.08v-0.89h-1.58v7.25h1.59v-4.02c0-1.26,0.7-1.93,1.78-1.93
		c1.05,0,1.58,0.68,1.58,1.91v4.03h1.59v-4.02c0-1.26,0.73-1.93,1.77-1.93c1.08,0,1.59,0.68,1.59,1.91v4.03H61.82z"/>
	<path fill="#F79410" d="M133.55,45.59v-1.51h-0.3l-0.35,1.03l-0.35-1.03h-0.3v1.51h0.21v-1.14l0.33,0.98h0.22l0.33-0.98v1.14
		H133.55z M131.64,45.59v-1.25h0.39v-0.25h-0.98v0.25h0.39v1.25H131.64z"/>
	<path fill="#FF5F00" d="M101.95,49.41h-23.9V6.49h23.9V49.41z"/>
	<path fill="#EB001B" d="M79.58,27.95c0-8.71,4.08-16.46,10.43-21.46C85.37,2.83,79.5,0.65,73.13,0.65
		c-15.08,0-27.31,12.22-27.31,27.3s12.23,27.3,27.31,27.3c6.37,0,12.23-2.18,16.88-5.84C83.66,44.41,79.58,36.65,79.58,27.95"/>
	<path fill="#F79E1B" d="M134.18,27.95c0,15.08-12.23,27.3-27.31,27.3c-6.37,0-12.23-2.18-16.88-5.84
		c6.35-5,10.43-12.75,10.43-21.46S96.34,11.48,89.99,6.49c4.65-3.65,10.51-5.84,16.88-5.84C121.95,0.65,134.18,12.87,134.18,27.95"
		/>
</g>
</svg>
