<?xml version="1.0" encoding="utf-8"?>
<!-- Generator: Adobe Illustrator 21.1.0, SVG Export Plug-In . SVG Version: 6.00 Build 0)  -->
<svg version="1.1" id="圖層_1" xmlns="http://www.w3.org/2000/svg" xmlns:xlink="http://www.w3.org/1999/xlink" x="0px" y="0px"
	 viewBox="0 0 180 70" enable-background="new 0 0 180 70" xml:space="preserve">
<symbol  id="icon-paypal" viewBox="-59.92 -14.63 119.84 29.27">
	<path fill="#253B80" d="M-15.11-8.09h-6.63c-0.45,0-0.84,0.33-0.91,0.78L-25.33,9.7c-0.05,0.33,0.21,0.64,0.55,0.64h3.17
		c0.45,0,0.84-0.33,0.91-0.78l0.72-4.59c0.07-0.45,0.46-0.78,0.91-0.78h2.1c4.37,0,6.89-2.11,7.55-6.3c0.3-1.83,0.01-3.27-0.85-4.28
		C-11.22-7.5-12.89-8.09-15.11-8.09L-15.11-8.09z M-14.34-1.88c-0.36,2.38-2.18,2.38-3.94,2.38h-1l0.7-4.44
		c0.04-0.27,0.27-0.47,0.55-0.47h0.46c1.2,0,2.33,0,2.91,0.68C-14.32-3.32-14.21-2.71-14.34-1.88L-14.34-1.88z"/>
	<path fill="#253B80" d="M4.71-1.95H1.54c-0.27,0-0.5,0.2-0.55,0.47L0.85-0.6L0.63-0.92c-0.69-1-2.22-1.33-3.75-1.33
		c-3.51,0-6.51,2.66-7.09,6.39c-0.3,1.86,0.13,3.64,1.18,4.88c0.97,1.14,2.35,1.62,4,1.62c2.83,0,4.4-1.82,4.4-1.82l-0.14,0.88
		c-0.05,0.34,0.21,0.64,0.54,0.64h2.86c0.46,0,0.84-0.33,0.91-0.78L5.26-1.31C5.31-1.65,5.05-1.95,4.71-1.95z M0.29,4.23
		C-0.02,6.04-1.46,7.26-3.3,7.26c-0.92,0-1.66-0.3-2.13-0.86c-0.47-0.56-0.65-1.35-0.5-2.23c0.29-1.8,1.75-3.06,3.56-3.06
		c0.9,0,1.63,0.3,2.12,0.86C0.24,2.55,0.43,3.35,0.29,4.23L0.29,4.23z"/>
	<path fill="#253B80" d="M21.63-1.95h-3.19c-0.31,0-0.59,0.15-0.76,0.4l-4.4,6.48L11.41-1.3c-0.12-0.39-0.48-0.66-0.88-0.66H7.39
		c-0.38,0-0.65,0.37-0.53,0.73l3.51,10.32l-3.3,4.67c-0.26,0.37,0,0.87,0.45,0.87h3.19c0.3,0,0.59-0.15,0.76-0.4L22.08-1.08
		C22.33-1.45,22.07-1.95,21.63-1.95L21.63-1.95z"/>
	<path fill="#179BD7" d="M32.19-8.09h-6.63c-0.45,0-0.84,0.33-0.91,0.78L21.97,9.7c-0.05,0.33,0.21,0.64,0.54,0.64h3.4
		c0.32,0,0.59-0.23,0.64-0.55l0.76-4.82c0.07-0.45,0.46-0.78,0.91-0.78h2.1c4.37,0,6.89-2.11,7.55-6.3c0.3-1.83,0.01-3.27-0.85-4.28
		C36.08-7.5,34.41-8.09,32.19-8.09L32.19-8.09z M32.96-1.88C32.6,0.5,30.78,0.5,29.02,0.5h-1l0.7-4.44
		c0.04-0.27,0.27-0.47,0.54-0.47h0.46c1.2,0,2.33,0,2.91,0.68C32.99-3.32,33.09-2.71,32.96-1.88L32.96-1.88z"/>
	<path fill="#179BD7" d="M52.02-1.95h-3.17c-0.27,0-0.5,0.2-0.54,0.47L48.16-0.6l-0.22-0.32c-0.69-1-2.22-1.33-3.75-1.33
		c-3.51,0-6.51,2.66-7.09,6.39c-0.3,1.86,0.13,3.64,1.18,4.88c0.97,1.14,2.35,1.62,4,1.62c2.83,0,4.4-1.82,4.4-1.82l-0.14,0.88
		c-0.05,0.34,0.21,0.64,0.55,0.64h2.86c0.45,0,0.84-0.33,0.91-0.78l1.72-10.87C52.62-1.65,52.36-1.95,52.02-1.95z M47.59,4.23
		c-0.31,1.81-1.75,3.03-3.58,3.03c-0.92,0-1.66-0.3-2.13-0.86c-0.47-0.56-0.65-1.35-0.5-2.23c0.29-1.8,1.75-3.06,3.56-3.06
		c0.9,0,1.64,0.3,2.12,0.86C47.54,2.55,47.73,3.35,47.59,4.23L47.59,4.23z"/>
	<path fill="#179BD7" d="M55.76-7.62L53.04,9.7c-0.05,0.33,0.21,0.64,0.54,0.64h2.74c0.46,0,0.84-0.33,0.91-0.78l2.68-17
		c0.05-0.34-0.21-0.64-0.54-0.64h-3.06C56.03-8.09,55.8-7.89,55.76-7.62L55.76-7.62z"/>
	<path fill="#253B80" d="M-52.87,13.64l0.51-3.22l-1.13-0.03h-5.39l3.75-23.77c0.01-0.07,0.05-0.14,0.1-0.19s0.13-0.07,0.2-0.07h9.1
		c3.02,0,5.1,0.63,6.19,1.87c0.51,0.58,0.83,1.19,0.99,1.86c0.17,0.7,0.17,1.54,0.01,2.56l-0.01,0.07v0.65l0.51,0.29
		c0.43,0.23,0.77,0.49,1.03,0.79c0.44,0.5,0.72,1.13,0.84,1.88c0.12,0.77,0.08,1.69-0.12,2.73c-0.23,1.19-0.61,2.23-1.12,3.09
		c-0.47,0.78-1.06,1.43-1.77,1.94c-0.67,0.48-1.48,0.84-2.38,1.08c-0.88,0.23-1.88,0.34-2.98,0.34h-0.71c-0.51,0-1,0.18-1.38,0.51
		c-0.39,0.33-0.64,0.79-0.72,1.29l-0.05,0.29l-0.9,5.68l-0.04,0.21c-0.01,0.07-0.03,0.1-0.06,0.12c-0.02,0.02-0.06,0.03-0.09,0.03
		L-52.87,13.64L-52.87,13.64z"/>
	<path fill="#179BD7" d="M-37.57-7.2L-37.57-7.2L-37.57-7.2c-0.03,0.17-0.06,0.35-0.09,0.53c-1.2,6.16-5.3,8.29-10.54,8.29h-2.67
		c-0.64,0-1.18,0.47-1.28,1.1l0,0l0,0l-1.37,8.66l-0.39,2.46c-0.07,0.42,0.25,0.79,0.67,0.79h4.73c0.56,0,1.04-0.41,1.13-0.96
		l0.05-0.24l0.89-5.66l0.06-0.31c0.09-0.56,0.56-0.96,1.13-0.96h0.71c4.59,0,8.18-1.86,9.23-7.25c0.44-2.25,0.21-4.13-0.95-5.45
		C-36.62-6.6-37.06-6.93-37.57-7.2L-37.57-7.2z"/>
	<path fill="#222D65" d="M-38.83-7.7c-0.18-0.05-0.37-0.1-0.57-0.14s-0.4-0.08-0.6-0.11c-0.72-0.12-1.51-0.17-2.35-0.17h-7.13
		c-0.18,0-0.34,0.04-0.49,0.11c-0.33,0.16-0.57,0.47-0.63,0.85l-1.52,9.61l-0.04,0.28c0.1-0.63,0.64-1.1,1.28-1.1h2.67
		c5.24,0,9.34-2.13,10.54-8.29c0.04-0.18,0.07-0.36,0.09-0.53c-0.3-0.16-0.63-0.3-0.99-0.42C-38.64-7.64-38.73-7.67-38.83-7.7
		L-38.83-7.7z"/>
	<path fill="#253B80" d="M-50.6-7.17c0.06-0.38,0.3-0.69,0.63-0.85c0.15-0.07,0.32-0.11,0.49-0.11h7.13c0.85,0,1.63,0.06,2.35,0.17
		c0.21,0.03,0.4,0.07,0.6,0.11s0.38,0.09,0.57,0.14c0.09,0.03,0.18,0.05,0.27,0.08c0.35,0.12,0.68,0.26,0.99,0.42
		c0.36-2.28,0-3.83-1.23-5.23c-1.36-1.54-3.81-2.21-6.94-2.21h-9.1c-0.64,0-1.19,0.46-1.28,1.1l-3.79,24.01
		c-0.08,0.48,0.29,0.9,0.77,0.9h5.61l1.41-8.94L-50.6-7.17L-50.6-7.17z"/>
</symbol>
<use xlink:href="#icon-paypal"  width="119.84" height="29.27" x="-59.92" y="-14.63" transform="matrix(1.3518 0 0 1.3518 90 35)" overflow="visible"/>
</svg>
