<?xml version="1.0" encoding="utf-8"?>
<!-- Generator: Adobe Illustrator 21.1.0, SVG Export Plug-In . SVG Version: 6.00 Build 0)  -->
<svg version="1.1" id="圖層_1" xmlns="http://www.w3.org/2000/svg" xmlns:xlink="http://www.w3.org/1999/xlink" x="0px" y="0px"
	 viewBox="0 0 180 70" enable-background="new 0 0 180 70" xml:space="preserve">
<g>
	<g>
		<path fill="#004686" d="M66.12,59.79l8.18-49.46h13.09l-8.19,49.46H66.12z"/>
		<path fill="#004686" d="M126.67,11.55c-2.59-1-6.66-2.08-11.73-2.08c-12.93,0-22.04,6.71-22.12,16.32
			c-0.07,7.11,6.5,11.07,11.47,13.44c5.09,2.42,6.81,3.97,6.78,6.13c-0.03,3.31-4.07,4.83-7.83,4.83c-5.24,0-8.02-0.75-12.32-2.6
			l-1.69-0.79L87.4,57.88c3.06,1.38,8.71,2.58,14.58,2.64c13.76,0,22.69-6.63,22.79-16.9c0.05-5.63-3.44-9.91-10.99-13.44
			c-4.57-2.29-7.38-3.81-7.35-6.13c0-2.06,2.37-4.25,7.49-4.25c4.28-0.07,7.38,0.89,9.79,1.89l1.17,0.57
			C124.89,22.27,126.67,11.55,126.67,11.55z"/>
		<path fill="#004686" d="M160.23,10.38h-10.11c-3.13,0-5.48,0.88-6.85,4.1l-19.43,45.32h13.74c0,0,2.25-6.09,2.76-7.43
			c1.5,0,14.85,0.02,16.76,0.02c0.39,1.73,1.59,7.41,1.59,7.41l12.14,0C170.82,59.81,160.23,10.38,160.23,10.38z M144.09,42.26
			c1.08-2.85,5.21-13.82,5.21-13.82c-0.08,0.13,1.07-2.86,1.74-4.72l0.89,4.26c0,0,2.5,11.81,3.03,14.28
			C154.95,42.26,144.09,42.26,144.09,42.26z"/>
		<path fill="#004686" d="M55.15,10.37L42.34,44.1l-1.37-6.85c-2.38-7.9-9.82-16.46-18.12-20.75l11.72,43.25l13.85-0.02l20.6-49.36
			L55.15,10.37L55.15,10.37z"/>
	</g>
	<path fill="#EF9B11" d="M30.45,10.34H9.35l-0.17,1.03c16.42,4.09,27.28,13.99,31.79,25.87l-4.59-22.73
		C35.59,11.38,33.29,10.45,30.45,10.34z"/>
</g>
</svg>
