<?xml version="1.0" encoding="utf-8"?>
<!-- Generator: Adobe Illustrator 21.1.0, SVG Export Plug-In . SVG Version: 6.00 Build 0)  -->
<svg version="1.1" id="圖層_1" xmlns="http://www.w3.org/2000/svg" xmlns:xlink="http://www.w3.org/1999/xlink" x="0px" y="0px"
	 viewBox="0 0 220 58" enable-background="new 0 0 220 58" xml:space="preserve">
<g>
	<path fill="#333333" d="M12.91,45.16c-1.16-0.88-2.11-1.98-2.85-3.31c-0.74-1.32-1.32-2.72-1.74-4.21c-0.42-1.48-0.7-3.01-0.84-4.6
		c-0.14-1.58-0.19-3.09-0.15-4.54c0.36-1.08,0.8-2.07,1.32-2.97c0.52-0.9,1.1-1.76,1.74-2.58c0.64-0.82,1.31-1.6,2.01-2.34
		c0.7-0.74,1.39-1.49,2.07-2.25c0.24,0,0.46,0.06,0.66,0.18c0.16-0.44,0.4-0.82,0.72-1.14c0.32-0.32,0.66-0.61,1.02-0.87
		c0.36-0.26,0.72-0.52,1.08-0.78c0.36-0.26,0.66-0.57,0.9-0.93c1-0.24,1.89-0.58,2.67-1.02c0.78-0.44,1.53-0.92,2.25-1.44
		c0.72-0.52,1.46-1,2.22-1.44c0.76-0.44,1.64-0.78,2.64-1.02c0.36-0.4,0.81-0.74,1.35-1.02c0.54-0.28,1.08-0.54,1.62-0.78
		c0.54-0.24,1.06-0.5,1.56-0.78c0.5-0.28,0.91-0.66,1.23-1.14c0.24,0.32,0.58,0.43,1.02,0.33c0.44-0.1,0.84-0.21,1.2-0.33
		c0.24-0.04,0.44,0,0.6,0.12c0.16,0.12,0.31,0.25,0.45,0.39c0.14,0.14,0.26,0.23,0.36,0.27c0.1,0.04,0.21-0.08,0.33-0.36
		C38.71,6.62,38.8,6.76,38.66,7c-0.14,0.24-0.23,0.4-0.27,0.48c0.4-0.08,0.73-0.01,0.99,0.21c0.26,0.22,0.67,0.37,1.23,0.45
		c0.2,0.2,0.26,0.36,0.18,0.48c-0.08,0.12-0.14,0.32-0.18,0.6c1.44,0.44,2.36,1.13,2.76,2.07c0.4,0.94,0.44,1.92,0.12,2.94
		c-0.32,1.02-0.91,1.96-1.77,2.82c-0.86,0.86-1.81,1.43-2.85,1.71c-1.24,0.32-2.39,0.64-3.46,0.96c-1.06,0.32-2.08,0.68-3.06,1.08
		c-0.98,0.4-1.9,0.87-2.76,1.41c-0.86,0.54-1.61,1.17-2.25,1.89c-1.12,0.32-2.13,0.76-3.03,1.32c-0.9,0.56-1.74,1.18-2.52,1.86
		c-0.78,0.68-1.53,1.39-2.25,2.13c-0.72,0.74-1.44,1.47-2.16,2.19c0,0.68-0.12,1.2-0.36,1.56c-0.24,0.36-0.5,0.72-0.78,1.08
		c0.08,0.76,0.25,1.41,0.51,1.95c0.26,0.54,0.53,1.09,0.81,1.65c3.2,0.96,6.6,1.55,10.19,1.77c3.58,0.22,7.14,0.35,10.67,0.39
		c0.36,0.48,0.77,0.93,1.23,1.35c0.46,0.42,0.88,0.85,1.26,1.29c0.38,0.44,0.68,0.95,0.9,1.53c0.22,0.58,0.27,1.27,0.15,2.07
		c-0.68,0.68-1.42,1.33-2.22,1.95c-0.8,0.62-1.6,1.23-2.4,1.83c-0.36,0.04-0.79,0.04-1.29,0c-0.5-0.04-1.02-0.06-1.56-0.06
		c-0.54,0-1.08,0.03-1.62,0.09c-0.54,0.06-1.05,0.19-1.53,0.39c-2.52-0.08-5.11-0.39-7.75-0.93c-2.64-0.54-5.09-1.19-7.33-1.95
		c-0.44-0.52-0.9-1.01-1.38-1.47C14.35,45.69,13.71,45.36,12.91,45.16z"/>
	<path fill="#333333" d="M53.71,43.24c0.08,0.32,0.14,0.62,0.18,0.9c0.04,0.28,0.1,0.58,0.18,0.9c-0.16,0.4-0.3,0.79-0.42,1.17
		s-0.24,0.75-0.36,1.11c-0.12,0.28-0.2,0.46-0.24,0.54c-0.04,0.08-0.06,0.14-0.06,0.18c0,0.04,0.01,0.09,0.03,0.15
		c0.02,0.06,0.03,0.23,0.03,0.51l-0.24,0.72c-0.2,0.28-0.44,0.5-0.72,0.66c-0.28,0.16-0.56,0.3-0.84,0.42
		c-0.08,0.08-0.2,0.15-0.36,0.21c-0.16,0.06-0.28,0.13-0.36,0.21l-0.18,0.72l-0.78,0.12c-0.68,0.16-1.26,0.24-1.74,0.24H47.1
		c-0.48-0.44-0.86-0.78-1.14-1.02c-0.28-0.24-0.58-0.46-0.9-0.66c-0.4-0.56-0.62-0.97-0.66-1.23c-0.04-0.26-0.1-0.51-0.18-0.75
		c-0.08-0.52-0.18-0.86-0.3-1.02l-0.84-0.84l0.72-0.54l-0.66-1.14c0.48-0.36,0.84-0.62,1.08-0.78s0.44-0.33,0.6-0.51
		c0.16-0.18,0.34-0.41,0.54-0.69c0.2-0.28,0.52-0.74,0.96-1.38l0.54-0.78l0.78,0.42c0.16,0.12,0.51,0.23,1.05,0.33
		c0.54,0.1,1.01,0.19,1.41,0.27c0.68,0.2,1.32,0.35,1.92,0.45c0.6,0.1,1.08,0.31,1.44,0.63L53.71,43.24z"/>
</g>
<polyline fill="none" stroke="#333333" stroke-width="1.0509" stroke-miterlimit="10" points="49,14 209,14 209,50 60.78,50 "/>
<polyline fill="none" stroke="#333333" stroke-width="1.0607" stroke-miterlimit="10" points="49,9 215,9 215,45 61,45 "/>
<g>
	<path fill="#333333" d="M83.73,40.31c-1.54-0.21-2.48-1.03-2.81-2.45l0.03-0.29c0.07-0.21,0.15-0.45,0.24-0.71
		c0.09-0.3,0.18-0.59,0.29-0.88c0.11-0.29,0.28-0.55,0.53-0.78c0.05-0.16,0.15-0.4,0.3-0.72c0.15-0.32,0.4-0.81,0.75-1.46
		c0.28-0.51,0.5-0.91,0.67-1.21c0.17-0.3,0.3-0.53,0.41-0.68c-0.18-0.32-0.42-0.62-0.74-0.92c-0.28-0.53-0.52-1.03-0.72-1.51
		c-0.2-0.48-0.36-0.92-0.46-1.3c-0.02-0.42-0.09-0.85-0.21-1.29c-0.05-0.23-0.11-0.46-0.16-0.68c-0.05-0.23-0.08-0.46-0.08-0.71
		c-0.07-0.12-0.13-0.28-0.18-0.47l0.05-0.32c0.09-0.14,0.11-0.33,0.07-0.57c-0.04-0.24-0.1-0.48-0.17-0.72
		c-0.05-0.23-0.1-0.47-0.14-0.72c-0.04-0.25-0.06-0.5-0.04-0.75c0.02-0.25,0.08-0.48,0.2-0.71c0.11-0.23,0.31-0.42,0.59-0.58
		l0.26-0.18l0.26,0.16c0.19,0.12,0.38,0.23,0.55,0.32c0.18,0.09,0.35,0.18,0.53,0.26c0.21,0.1,0.42,0.21,0.63,0.33
		c0.21,0.11,0.44,0.24,0.68,0.38l0.26,0.18l-0.03,0.29c0,0.04,0.01,0.08,0.03,0.13c0.02,0.05,0.04,0.1,0.08,0.13l0.29,0.08
		l0.03,0.37v0.32c0,0.16,0.01,0.27,0.03,0.33c0.02,0.06,0.05,0.13,0.11,0.2l0.13,0.34c0,0.32,0.03,0.6,0.08,0.84
		s0.11,0.49,0.18,0.74c0.09,0.25,0.16,0.5,0.21,0.75s0.06,0.53,0.03,0.83c0.1-0.05,0.21-0.13,0.32-0.24
		c0.04-0.04,0.07-0.07,0.12-0.11c0.04-0.03,0.09-0.07,0.14-0.1l1.84-2.5l-0.05-0.32l0.66-0.63c0.17-0.14,0.34-0.28,0.5-0.43
		c0.16-0.15,0.29-0.32,0.4-0.51l0.16-0.24c0.79-1.05,1.81-1.7,3.05-1.95l0.45-0.11l0.13,0.42c0.09,0.25,0.26,0.46,0.51,0.64
		c0.25,0.18,0.53,0.36,0.83,0.54l0.29,0.18c0.11,0.21,0.16,0.37,0.16,0.47c0,0.11-0.01,0.19-0.03,0.26l0.13,0.34
		c-0.19,0.51-0.4,0.87-0.63,1.09c-0.23,0.22-0.46,0.43-0.71,0.62c-0.19,0.16-0.37,0.32-0.53,0.47c-0.16,0.16-0.28,0.33-0.37,0.53
		l-0.21,0.26c-0.44,0.23-0.72,0.56-0.84,1l-0.1,0.37h-0.39c-0.02,0-0.06,0.04-0.13,0.12c-0.07,0.08-0.18,0.27-0.32,0.57
		c-0.16,0.21-0.27,0.35-0.33,0.41c-0.06,0.06-0.11,0.11-0.14,0.15c-0.04,0.09-0.07,0.17-0.09,0.24c-0.03,0.07-0.06,0.16-0.09,0.26
		l-0.16,0.21c-0.16,0.14-0.27,0.28-0.34,0.41c-0.07,0.13-0.15,0.29-0.24,0.46c-0.07,0.16-0.15,0.32-0.24,0.49
		c-0.09,0.17-0.21,0.33-0.37,0.49l0.05,0.29L89.67,31c-0.14,0.12-0.26,0.28-0.37,0.46c-0.11,0.18-0.21,0.37-0.32,0.57
		c-0.1,0.21-0.22,0.42-0.34,0.63c-0.12,0.21-0.28,0.4-0.47,0.58c-0.12,0.32-0.23,0.56-0.33,0.74s-0.26,0.39-0.49,0.63
		c-0.21,0.84-0.71,1.75-1.5,2.71c-0.02,0.19-0.07,0.38-0.17,0.57c-0.1,0.18-0.2,0.36-0.3,0.51c-0.04,0.07-0.07,0.15-0.12,0.22
		c-0.04,0.08-0.08,0.14-0.09,0.17l-0.08,0.29c-0.1,0.19-0.21,0.35-0.33,0.47c-0.11,0.12-0.22,0.24-0.33,0.34
		c-0.05,0.04-0.1,0.08-0.14,0.13c-0.04,0.05-0.08,0.1-0.12,0.13L83.73,40.31z"/>
	<path fill="#333333" d="M101.37,37.6c0.09,0.53,0.06,0.94-0.09,1.24c-0.15,0.3-0.36,0.52-0.63,0.67c-0.27,0.15-0.58,0.23-0.93,0.25
		c-0.35,0.02-0.68,0-1-0.05c-0.18-0.25-0.33-0.55-0.47-0.92c-0.14-0.37-0.27-0.75-0.4-1.14s-0.23-0.79-0.33-1.17
		c-0.1-0.39-0.18-0.73-0.25-1.03c0.09-0.21,0.14-0.45,0.17-0.72c0.03-0.27,0.04-0.55,0.05-0.83s0.02-0.57,0.03-0.86
		c0.01-0.29,0.03-0.57,0.07-0.83c0.12-0.74,0.3-1.44,0.54-2.1c0.24-0.67,0.43-1.36,0.57-2.08c0.04-0.16,0.02-0.31-0.04-0.45
		c-0.06-0.14-0.08-0.27-0.04-0.39c0.02-0.07,0.07-0.12,0.16-0.14c0.09-0.03,0.14-0.08,0.16-0.17c0.05-0.19,0.07-0.35,0.04-0.47
		c-0.03-0.12,0-0.27,0.09-0.45c0.09-0.14,0.2-0.35,0.33-0.62c0.13-0.27,0.18-0.56,0.15-0.85c0.16-0.11,0.31-0.23,0.45-0.37
		c0.14-0.14,0.29-0.27,0.43-0.38c0.15-0.11,0.32-0.21,0.5-0.3c0.18-0.09,0.41-0.13,0.67-0.13c0.14,0.18,0.23,0.37,0.28,0.58
		c0.04,0.21,0.09,0.42,0.13,0.63c0.04,0.21,0.11,0.41,0.2,0.59c0.09,0.18,0.24,0.33,0.45,0.43c0,0.14,0,0.32,0,0.53
		s0.01,0.42,0.03,0.62c0.02,0.2,0.06,0.39,0.12,0.55c0.06,0.17,0.16,0.28,0.3,0.33c-0.32,0.84-0.61,1.67-0.88,2.5
		s-0.5,1.65-0.67,2.49s-0.29,1.67-0.33,2.51C101.15,35.89,101.21,36.74,101.37,37.6z"/>
	<path fill="#333333" d="M120.79,31.6c0.26,0.04,0.45,0.1,0.56,0.18c0.12,0.09,0.19,0.2,0.24,0.33c0.04,0.13,0.06,0.28,0.04,0.43
		s-0.03,0.32-0.03,0.47c-0.44,0.3-1.04,0.5-1.81,0.62s-1.58,0.19-2.42,0.24c-0.84,0.04-1.66,0.07-2.45,0.07s-1.41,0.03-1.87,0.08
		c-0.95,0.1-1.68,0.21-2.2,0.3c-0.52,0.1-0.87,0.19-1.07,0.28c-0.33-0.02-0.6-0.08-0.79-0.18c-0.19-0.11-0.35-0.23-0.47-0.38
		c-0.12-0.15-0.23-0.32-0.32-0.51c-0.09-0.19-0.19-0.39-0.32-0.61c0.07-0.14,0.09-0.34,0.05-0.6c-0.04-0.26-0.14-0.46-0.32-0.61
		c0.14-0.02,0.25-0.12,0.32-0.3c0.07-0.18,0.07-0.32,0-0.41c0.28-0.07,0.58-0.12,0.91-0.14c0.32-0.03,0.64-0.05,0.96-0.07
		c0.32-0.02,0.62-0.05,0.91-0.09s0.54-0.12,0.75-0.22c0.88-0.02,1.78-0.04,2.72-0.08c0.94-0.03,1.82-0.07,2.64-0.1
		c0.3,0.09,0.65,0.13,1.05,0.14c0.4,0.01,0.8,0.04,1.18,0.08c0.39,0.04,0.74,0.15,1.05,0.3C120.45,30.97,120.67,31.23,120.79,31.6z"
		/>
	<path fill="#333333" d="M126.8,24.6c-0.02-0.14-0.05-0.27-0.09-0.38c-0.04-0.11-0.09-0.24-0.14-0.38
		c-0.09-0.21-0.17-0.44-0.24-0.68c-0.07-0.25-0.11-0.53-0.11-0.87c0.04-0.18,0.08-0.3,0.13-0.38s0.1-0.14,0.16-0.2l0.11-0.47h0.39
		c0.14,0.02,0.29,0.03,0.43,0.03c0.15,0,0.29,0,0.43,0c0.67,0,1.35-0.03,2.05-0.08c0.7-0.05,1.42-0.11,2.16-0.18
		c0.81-0.1,1.67-0.18,2.6-0.24c0.09-0.19,0.14-0.32,0.17-0.37s0.06-0.11,0.09-0.18l0.29-0.16c0.4-0.02,0.68,0.03,0.84,0.14
		c0.16,0.11,0.28,0.22,0.37,0.33c0.46-0.03,0.92-0.08,1.39-0.14c0.47-0.06,0.96-0.13,1.47-0.2c0.7-0.09,1.41-0.18,2.13-0.26
		c0.72-0.09,1.42-0.13,2.11-0.13c0.3,0,0.58,0.01,0.84,0.03c0.26,0.02,0.52,0.04,0.76,0.08l0.32,0.24c0.07,0.12,0.16,0.24,0.26,0.34
		c0.11,0.1,0.23,0.21,0.37,0.32c0.26,0.21,0.52,0.47,0.78,0.79c0.25,0.32,0.35,0.78,0.28,1.39l-0.13,0.26
		c-0.07,0.07-0.16,0.14-0.26,0.21l-0.26,0.34h-0.29c-0.17,0-0.31,0.01-0.39,0.04s-0.19,0.07-0.32,0.12
		c-0.07,0.04-0.15,0.07-0.24,0.09c-0.09,0.03-0.18,0.06-0.29,0.09c-0.19-0.02-0.34-0.03-0.45-0.03s-0.23,0-0.37,0
		c-0.53,0-1.1,0.04-1.71,0.1c-0.61,0.07-1.21,0.15-1.79,0.24c-0.42,0.05-0.82,0.1-1.21,0.14c-0.39,0.04-0.74,0.08-1.05,0.12
		c-0.18,0.46-0.33,0.86-0.47,1.21c-0.14,0.35-0.29,0.7-0.45,1.05c-0.16,0.35-0.31,0.71-0.45,1.07c-0.14,0.36-0.27,0.76-0.39,1.2
		c-0.21,0.32-0.39,0.62-0.53,0.91c-0.14,0.29-0.25,0.62-0.34,0.99c-0.26,0.3-0.45,0.62-0.57,0.97c-0.11,0.35-0.22,0.65-0.3,0.89
		l-0.11,0.39c-0.12,0.12-0.2,0.22-0.22,0.29c-0.03,0.07-0.08,0.15-0.14,0.24c-0.05,0.23-0.12,0.45-0.21,0.66
		c-0.04,0.09-0.07,0.18-0.1,0.28c-0.04,0.1-0.04,0.17-0.03,0.22c-0.04,0.19-0.09,0.34-0.16,0.45c0,0.11-0.01,0.21-0.03,0.32
		c-0.02,0.11-0.04,0.21-0.05,0.32c-0.04,0.12-0.06,0.23-0.08,0.33c-0.02,0.1-0.01,0.19,0.03,0.28c0.05,0.07,0.11,0.14,0.16,0.21
		s0.1,0.16,0.13,0.26c0.03,0.04,0.08,0.06,0.13,0.08s0.1,0.04,0.13,0.08c0.14,0.12,0.27,0.19,0.39,0.21l0.26,0.32
		c0.11,0.63,0.01,1.12-0.29,1.47c-0.32,0.4-0.84,0.61-1.58,0.61l-0.37-0.03c-0.12-0.12-0.19-0.2-0.21-0.24
		c-0.16-0.07-0.29-0.13-0.39-0.17s-0.2-0.13-0.29-0.25c-0.04-0.03-0.08-0.06-0.13-0.07s-0.1-0.03-0.13-0.07
		c-0.17-0.05-0.32-0.11-0.42-0.18l-0.29-0.16c0.02-0.17,0.03-0.3,0.03-0.37c-0.14-0.19-0.25-0.4-0.33-0.63s-0.14-0.46-0.2-0.71
		c-0.05-0.19-0.1-0.37-0.14-0.53c-0.04-0.16-0.11-0.3-0.2-0.42c-0.04-1.23,0.08-2.26,0.34-3.09c0.26-0.83,0.55-1.64,0.87-2.43
		c0.18-0.42,0.34-0.85,0.5-1.29c0.16-0.44,0.3-0.89,0.42-1.34l0.29-0.29c0.12-0.11,0.2-0.17,0.24-0.18c0-0.23,0.04-0.45,0.13-0.67
		c0.09-0.22,0.18-0.44,0.29-0.67c0.07-0.14,0.14-0.28,0.2-0.42c0.06-0.14,0.1-0.26,0.12-0.37c-0.12,0-0.23,0-0.33,0.01
		c-0.1,0.01-0.2,0.02-0.3,0.04c-0.23,0.05-0.45,0.08-0.66,0.08c-0.16,0-0.27-0.01-0.34-0.03c-0.14,0.07-0.27,0.11-0.39,0.12
		c-0.12,0.01-0.25,0.01-0.37,0.01h-0.32h-0.32c-0.21,0-0.38,0.03-0.5,0.08c-0.25,0-0.4,0-0.47,0s-0.15,0-0.24,0h-0.32h-0.32
		c-0.14,0-0.3-0.01-0.47-0.04c-0.18-0.03-0.36-0.09-0.55-0.2l-0.18-0.21c-0.1-0.19-0.2-0.3-0.29-0.32l-0.29-0.08V24.6z"/>
	<path fill="#333333" d="M150.85,37.6c0.09,0.53,0.06,0.94-0.09,1.24c-0.15,0.3-0.36,0.52-0.63,0.67c-0.27,0.15-0.58,0.23-0.93,0.25
		c-0.35,0.02-0.68,0-1-0.05c-0.18-0.25-0.33-0.55-0.47-0.92c-0.14-0.37-0.27-0.75-0.39-1.14s-0.23-0.79-0.33-1.17
		c-0.1-0.39-0.18-0.73-0.25-1.03c0.09-0.21,0.14-0.45,0.17-0.72c0.03-0.27,0.04-0.55,0.05-0.83c0.01-0.28,0.02-0.57,0.03-0.86
		c0.01-0.29,0.03-0.57,0.07-0.83c0.12-0.74,0.3-1.44,0.54-2.1c0.24-0.67,0.42-1.36,0.57-2.08c0.04-0.16,0.02-0.31-0.04-0.45
		c-0.06-0.14-0.08-0.27-0.04-0.39c0.02-0.07,0.07-0.12,0.16-0.14s0.14-0.08,0.16-0.17c0.05-0.19,0.07-0.35,0.04-0.47
		c-0.03-0.12,0-0.27,0.09-0.45c0.09-0.14,0.2-0.35,0.33-0.62s0.18-0.56,0.14-0.85c0.16-0.11,0.31-0.23,0.45-0.37
		c0.14-0.14,0.29-0.27,0.43-0.38c0.15-0.11,0.32-0.21,0.5-0.3c0.18-0.09,0.41-0.13,0.67-0.13c0.14,0.18,0.23,0.37,0.28,0.58
		s0.09,0.42,0.13,0.63s0.11,0.41,0.2,0.59s0.24,0.33,0.45,0.43c0,0.14,0,0.32,0,0.53s0.01,0.42,0.03,0.62s0.06,0.39,0.12,0.55
		c0.06,0.17,0.16,0.28,0.3,0.33c-0.32,0.84-0.61,1.67-0.88,2.5c-0.27,0.82-0.5,1.65-0.67,2.49c-0.18,0.83-0.29,1.67-0.33,2.51
		C150.64,35.89,150.7,36.74,150.85,37.6z"/>
	<path fill="#333333" d="M161.99,34.65c-0.16,0.04-0.27,0.13-0.34,0.28c-0.07,0.15-0.14,0.3-0.2,0.46c-0.06,0.16-0.12,0.3-0.18,0.43
		c-0.06,0.13-0.15,0.2-0.28,0.2c-0.02,0.14-0.07,0.26-0.14,0.37c-0.08,0.11-0.15,0.21-0.22,0.33c-0.07,0.11-0.12,0.24-0.16,0.37
		s-0.02,0.29,0.05,0.46c-0.14,0.11-0.23,0.25-0.26,0.45c-0.04,0.19-0.07,0.38-0.12,0.55c-0.04,0.18-0.12,0.33-0.22,0.45
		c-0.1,0.12-0.3,0.18-0.58,0.16c-0.05,0.07-0.06,0.11-0.03,0.13c0.03,0.02,0.06,0.08,0.08,0.18c-0.19-0.04-0.34-0.02-0.43,0.04
		c-0.1,0.06-0.21,0.1-0.36,0.12c-0.33-0.11-0.61-0.29-0.83-0.55c-0.22-0.26-0.41-0.56-0.58-0.88c-0.17-0.32-0.32-0.65-0.45-0.99
		c-0.13-0.33-0.26-0.62-0.38-0.87c0.05-0.19,0.06-0.38,0.03-0.57c-0.03-0.18-0.1-0.34-0.18-0.46c0.86-1.82,1.8-3.77,2.81-5.84
		c1.02-2.07,1.98-4.11,2.89-6.13c0.4,0.16,0.8,0.34,1.2,0.54s0.75,0.43,1.08,0.7c0.32,0.26,0.6,0.57,0.83,0.91
		c0.23,0.34,0.38,0.72,0.45,1.14c-0.04,0.1-0.07,0.14-0.12,0.12s-0.08-0.01-0.12,0.04c0.07,0.09,0.11,0.15,0.12,0.18
		c0.01,0.04,0.01,0.07,0,0.11s-0.01,0.08-0.01,0.14c0,0.06,0.03,0.14,0.08,0.25c-0.07-0.02-0.12-0.01-0.14,0.03s-0.08,0.04-0.17,0
		c0.07,0.19,0.09,0.35,0.07,0.47c-0.03,0.12-0.07,0.23-0.12,0.33c-0.05,0.1-0.1,0.2-0.13,0.32c-0.04,0.11-0.03,0.26,0.03,0.43
		c-0.05,0-0.09,0.01-0.12,0.04s-0.05,0.05-0.07,0.08s-0.04,0.05-0.07,0.08c-0.03,0.03-0.07,0.03-0.12,0.01
		c0.05,0.39,0.07,0.77,0.05,1.16c-0.02,0.39-0.03,0.78-0.04,1.17s0,0.81,0.01,1.24s0.08,0.87,0.18,1.33
		c0.63-0.37,1.13-0.84,1.51-1.42c0.38-0.58,0.68-1.23,0.92-1.95c0.24-0.72,0.42-1.49,0.54-2.31c0.12-0.82,0.25-1.67,0.39-2.53
		c0.16-0.16,0.28-0.35,0.37-0.58s0.17-0.47,0.24-0.72c0.07-0.25,0.14-0.51,0.21-0.76s0.16-0.49,0.26-0.7
		c0.26,0.04,0.49,0.12,0.67,0.25c0.18,0.13,0.36,0.27,0.51,0.42c0.16,0.15,0.32,0.29,0.5,0.42c0.17,0.13,0.39,0.21,0.66,0.25
		c0.21,0.3,0.4,0.59,0.58,0.87c0.17,0.28,0.29,0.58,0.34,0.89c-0.09,0.14-0.15,0.3-0.2,0.47c-0.04,0.18-0.09,0.35-0.14,0.53
		s-0.12,0.34-0.21,0.49c-0.09,0.15-0.21,0.28-0.37,0.38c-0.05,0.46-0.12,0.87-0.2,1.25c-0.08,0.38-0.16,0.75-0.24,1.12
		c-0.08,0.37-0.15,0.75-0.2,1.14c-0.05,0.39-0.07,0.83-0.05,1.3c-0.14,0.4-0.29,0.83-0.45,1.29c-0.16,0.46-0.28,0.87-0.37,1.24
		c-0.28,0.23-0.5,0.5-0.66,0.82c-0.16,0.32-0.32,0.63-0.5,0.95c-0.07,0.07-0.11,0.09-0.13,0.05c-0.02-0.04-0.08-0.06-0.18-0.08
		c0.02,0.07,0.02,0.12,0,0.16s-0.04,0.07-0.07,0.09s-0.04,0.07-0.05,0.12s0,0.12,0.04,0.21c-0.25,0.11-0.46,0.25-0.66,0.45
		c-0.19,0.19-0.4,0.37-0.62,0.53c-0.22,0.16-0.48,0.26-0.79,0.32s-0.71-0.01-1.2-0.18c-0.72-0.53-1.36-1.13-1.91-1.82
		C162.79,36.41,162.34,35.6,161.99,34.65z"/>
	<path fill="#333333" d="M193.15,34.7c-0.42,0.75-0.97,1.34-1.66,1.75c-0.68,0.41-1.44,0.75-2.26,1.03
		c-0.83,0.27-1.69,0.51-2.59,0.72c-0.9,0.21-1.78,0.48-2.62,0.82c-0.25,0-0.46,0.01-0.64,0.03c-0.18,0.02-0.36,0.04-0.53,0.07
		c-0.17,0.03-0.33,0.05-0.49,0.08c-0.16,0.03-0.33,0.05-0.53,0.07c-0.07-0.02-0.11,0-0.13,0.04s-0.04,0.08-0.08,0.12
		c-0.3,0.05-0.57,0.08-0.8,0.08c-0.24,0-0.43,0-0.59,0c-0.21,0-0.43,0.03-0.64,0.09c-0.22,0.06-0.42,0.08-0.59,0.07
		c-1.31-0.07-2.35-0.54-3.09-1.41s-1.16-2.07-1.25-3.62c0.02-0.09,0-0.14-0.04-0.16s-0.08-0.04-0.12-0.08
		c0-0.18,0.02-0.32,0.07-0.45s0.05-0.28,0.01-0.47c0.46-0.96,0.97-1.86,1.55-2.7c0.58-0.83,1.27-1.57,2.08-2.2
		c0.12-0.11,0.23-0.21,0.32-0.32c0.09-0.1,0.17-0.21,0.25-0.32c0.08-0.11,0.17-0.2,0.28-0.28c0.11-0.08,0.24-0.14,0.39-0.17
		c0.37-0.42,0.81-0.81,1.32-1.16c0.51-0.35,1.04-0.69,1.61-1.01c0.56-0.32,1.12-0.65,1.67-0.97c0.55-0.32,1.06-0.69,1.51-1.09
		c0.19,0.09,0.33,0.11,0.42,0.08c0.09-0.03,0.18-0.03,0.29,0c0.12,0.26,0.29,0.45,0.51,0.55c0.22,0.1,0.44,0.21,0.66,0.33
		c0.22,0.11,0.43,0.25,0.62,0.41c0.19,0.16,0.34,0.37,0.45,0.63c-0.1,0-0.15,0.04-0.14,0.12c0.01,0.08,0.03,0.16,0.07,0.24
		c0.04,0.08,0.05,0.16,0.04,0.24c-0.01,0.08-0.08,0.12-0.2,0.12c0.02,0.09,0.07,0.14,0.17,0.14c0.1,0.01,0.14,0.06,0.14,0.15
		s-0.02,0.16-0.07,0.21c-0.04,0.05-0.05,0.14-0.01,0.26c-0.35,0.23-0.74,0.45-1.17,0.66c-0.43,0.21-0.88,0.43-1.34,0.67
		c-0.46,0.24-0.95,0.49-1.45,0.76s-0.99,0.58-1.46,0.93c-0.47,0.35-0.96,0.74-1.45,1.17c-0.49,0.43-0.96,0.88-1.42,1.36
		c-0.46,0.47-0.89,0.96-1.29,1.46c-0.4,0.5-0.75,1-1.03,1.49c0.04,0.09,0.07,0.15,0.12,0.2s0.08,0.11,0.12,0.2
		c0.56,0.04,1.08,0.03,1.56-0.01c0.48-0.04,0.97-0.01,1.46,0.09c0.05-0.04,0.09-0.09,0.11-0.16c0.02-0.07,0.06-0.12,0.13-0.16
		c1-0.1,1.93-0.27,2.79-0.49c0.86-0.22,1.74-0.45,2.63-0.7c-0.14-0.05-0.27-0.1-0.38-0.14c-0.11-0.04-0.22-0.08-0.33-0.12
		c-0.09-0.09-0.08-0.16,0.01-0.22s0.18-0.13,0.25-0.2c-0.25-0.14-0.44-0.32-0.59-0.53c-0.15-0.21-0.24-0.49-0.28-0.84
		c0.11-0.09,0.16-0.19,0.16-0.32s-0.05-0.22-0.16-0.29c-0.07-0.02-0.11-0.02-0.13,0c-0.02,0.02-0.03,0.04-0.04,0.08
		s-0.02,0.07-0.04,0.09c-0.02,0.03-0.06,0.02-0.13-0.01c0.02-0.16,0.06-0.29,0.12-0.39s0.11-0.23,0.15-0.37l1.81-1.21
		c0.19,0.14,0.43,0.29,0.71,0.46c0.28,0.17,0.57,0.33,0.88,0.5s0.62,0.33,0.95,0.5c0.32,0.17,0.63,0.33,0.91,0.49
		c0.25,0.11,0.46,0.25,0.66,0.42c0.19,0.18,0.38,0.36,0.55,0.54c0.18,0.18,0.36,0.36,0.54,0.54c0.18,0.17,0.4,0.32,0.64,0.45
		c-0.04,0.23-0.03,0.41,0.03,0.55C193.15,34.32,193.17,34.49,193.15,34.7z"/>
</g>
</svg>
