<?xml version="1.0" encoding="utf-8"?>
<!-- Generator: Adobe Illustrator 16.0.0, SVG Export Plug-In . SVG Version: 6.00 Build 0)  -->
<!DOCTYPE svg PUBLIC "-//W3C//DTD SVG 1.1//EN" "http://www.w3.org/Graphics/SVG/1.1/DTD/svg11.dtd">
<svg version="1.1" id="圖層_1" xmlns="http://www.w3.org/2000/svg" xmlns:xlink="http://www.w3.org/1999/xlink" x="0px" y="0px"
	 width="29.074px" height="27.727px" viewBox="0 0 29.074 27.727" enable-background="new 0 0 29.074 27.727" xml:space="preserve">
<path fill="#FFFFFF" d="M29.074,11.703C29.074,5.24,22.566,0,14.537,0S0,5.24,0,11.703C0,17.9,5.992,22.974,13.569,23.377
	c0.095,0.536,0.082,1.174-0.086,1.932c-0.462,2.088-1.342,3.367,1.998,1.545C17.746,25.625,28.799,18.602,28.795,14
	c0-0.001,0-0.002,0-0.004C28.979,13.253,29.075,12.49,29.074,11.703L29.074,11.703z M8.702,15.544
	c-0.159,0.159-0.351,0.238-0.577,0.238H4.791c-0.254,0-0.471-0.097-0.651-0.271c-0.18-0.186-0.27-0.396-0.27-0.651V8.638
	c0-0.254,0.09-0.472,0.27-0.647c0.18-0.183,0.397-0.271,0.651-0.271h0.095c0.254,0,0.471,0.09,0.651,0.271
	c0.18,0.183,0.27,0.396,0.27,0.647v5.407c0,0.071,0.035,0.104,0.106,0.104h2.212c0.226,0,0.418,0.079,0.577,0.237
	c0.159,0.159,0.238,0.354,0.238,0.578S8.861,15.386,8.702,15.544L8.702,15.544z M11.461,14.861c0,0.261-0.09,0.478-0.27,0.651
	c-0.18,0.18-0.397,0.271-0.651,0.271h-0.095c-0.254,0-0.471-0.097-0.651-0.271c-0.18-0.186-0.27-0.396-0.27-0.651V8.638
	c0-0.254,0.09-0.472,0.27-0.647c0.18-0.184,0.397-0.271,0.651-0.271h0.095c0.254,0,0.471,0.09,0.651,0.271
	c0.18,0.183,0.27,0.396,0.27,0.647V14.861z M18.904,14.861c0,0.261-0.09,0.478-0.271,0.651c-0.188,0.18-0.396,0.271-0.65,0.271
	h-0.127c-0.277,0-0.545-0.074-0.787-0.229c-0.239-0.146-0.43-0.351-0.559-0.592l-1.582-3.083l-0.771-1.736
	c-0.007-0.021-0.02-0.025-0.037-0.025s-0.025,0.011-0.025,0.025c0.006,0.113,0.036,0.402,0.09,0.868
	c0.054,0.466,0.092,0.856,0.117,1.175c0.024,0.316,0.036,0.621,0.036,0.91v1.755c0,0.257-0.09,0.479-0.27,0.648
	c-0.181,0.182-0.397,0.271-0.651,0.271s-0.471-0.093-0.651-0.271c-0.18-0.185-0.27-0.396-0.27-0.648v-6.22
	c0-0.255,0.09-0.472,0.27-0.651c0.18-0.179,0.397-0.271,0.651-0.271h0.127c0.282,0,0.545,0.074,0.788,0.223
	c0.243,0.147,0.433,0.353,0.565,0.6l1.578,3.048l0.778,1.757c0.013,0.021,0.021,0.032,0.037,0.032c0.021,0,0.021-0.018,0.021-0.032
	c-0.168-1.353-0.254-2.332-0.254-2.953V8.636c0-0.255,0.092-0.472,0.271-0.65c0.184-0.181,0.396-0.271,0.648-0.271
	s0.474,0.091,0.646,0.271c0.187,0.186,0.271,0.396,0.271,0.65v6.223H18.9v0.006L18.904,14.861L18.904,14.861z M24.965,15.544
	c-0.158,0.159-0.352,0.238-0.576,0.238h-3.504c-0.254,0-0.471-0.097-0.646-0.271c-0.184-0.186-0.271-0.396-0.271-0.651V8.638
	c0-0.254,0.093-0.472,0.271-0.647c0.183-0.184,0.396-0.271,0.646-0.271h3.397c0.219,0,0.405,0.078,0.562,0.237
	c0.154,0.153,0.232,0.348,0.232,0.563c0,0.221-0.078,0.408-0.232,0.565c-0.156,0.158-0.343,0.233-0.562,0.233h-2.274
	c-0.072,0-0.104,0.033-0.104,0.104v1.28c0,0.065,0.031,0.104,0.104,0.104h1.788c0.22,0,0.408,0.079,0.565,0.238
	c0.158,0.158,0.238,0.352,0.238,0.576c0,0.227-0.078,0.419-0.238,0.577c-0.158,0.153-0.346,0.232-0.565,0.232h-1.788
	c-0.072,0-0.104,0.034-0.104,0.105v1.488c0,0.068,0.031,0.104,0.104,0.104h2.381c0.229,0,0.418,0.079,0.576,0.237
	c0.159,0.156,0.238,0.354,0.238,0.576C25.203,15.181,25.124,15.384,24.965,15.544L24.965,15.544z"/>
</svg>
