<svg width="25" height="22" viewBox="0 0 25 22" fill="none" xmlns="http://www.w3.org/2000/svg">
<path d="M7.14413 5.05276L7.23164 5.44349H7.63205H21.6633C22.3059 5.44349 22.9008 5.7228 23.302 6.20866C23.6964 6.6933 23.8471 7.3192 23.7208 7.92985L22.3405 14.136C22.3404 14.1364 22.3404 14.1368 22.3403 14.1372C22.129 15.0655 21.2696 15.752 20.2877 15.752H10.8164C9.82697 15.752 8.9695 15.0641 8.76408 14.1383L8.7639 14.1375L6.27071 2.98621C6.27063 2.98585 6.27055 2.98548 6.27046 2.98511C6.10077 2.21307 5.39896 1.67382 4.61741 1.67382H0.988145C0.869172 1.67382 0.785706 1.57869 0.785706 1.48428C0.785706 1.38986 0.869172 1.29473 0.988145 1.29473H4.61156C5.595 1.29473 6.45342 1.977 6.66426 2.91C6.66428 2.9101 6.66431 2.9102 6.66433 2.91029L7.14413 5.05276ZM8.26197 10.0395L8.34888 10.4312H8.7501H11.033H11.5983L11.5293 9.87012L11.0844 6.25576L11.0304 5.81684H10.5881H7.94814H7.32505L7.46002 6.42514L8.26197 10.0395ZM9.06034 10.816H8.4372L8.57222 11.4244L9.15729 14.0605C9.15735 14.0608 9.15741 14.0611 9.15747 14.0614C9.28971 14.6635 9.7456 15.1241 10.3106 15.2977V15.3787H10.8106H11.6418H12.2072L12.138 14.8175L11.699 11.2549L11.6449 10.816H11.2028H9.06034ZM12.5504 14.9341L12.6045 15.3729H13.0467H14.3379H14.8379H14.8438V14.8729H15.3379V11.3103V10.8103H14.8379H12.6077H12.0423L12.1114 11.3714L12.5504 14.9341ZM14.8438 10.4312H15.3438V9.9312V6.31684V5.81684H14.8438H11.9989H11.4336L11.5026 6.37792L11.9475 9.99229L12.0015 10.4312H12.4438H14.8438ZM17.993 15.3729H18.4352L18.4893 14.9341L18.9283 11.3714L18.9974 10.8103H18.432H16.2486H15.7486V11.3103V14.8729V15.3729H16.2486H17.993ZM18.6018 10.4312H19.0447L19.0982 9.99149L19.5372 6.37713L19.6052 5.81684H19.0408H16.2486H15.7486V6.31684V9.9312V10.4312H16.2486H18.6018ZM18.9134 14.806L18.8442 15.3672H19.4096H20.2877C21.0693 15.3672 21.7713 14.8278 21.9408 14.0555C21.9409 14.0553 21.9409 14.055 21.941 14.0548L22.5261 11.4127L22.6607 10.8045H22.0379H19.8486H19.4065L19.3524 11.2434L18.9134 14.806ZM22.3423 10.4369H22.7437L22.8305 10.045L23.3157 7.8526C23.4329 7.34721 23.304 6.83294 22.9792 6.44049C22.6559 6.04993 22.1752 5.82258 21.6633 5.82258H20.4574H20.0152L19.9612 6.2615L19.5163 9.87587L19.4472 10.4369H20.0125H22.3423Z" fill="#AD9B91" stroke="#AD9B91"/>
<path d="M10.8306 19.4354C10.8306 18.7262 11.4174 18.1369 12.1628 18.1369C12.9081 18.1369 13.495 18.7262 13.495 19.4354C13.495 20.1447 12.9081 20.734 12.1628 20.734C11.4174 20.734 10.8306 20.1447 10.8306 19.4354ZM11.2354 19.4354C11.2354 19.9501 11.6612 20.3549 12.1628 20.3549C12.6643 20.3549 13.0901 19.9501 13.0901 19.4354C13.0901 18.9207 12.6643 18.516 12.1628 18.516C11.6612 18.516 11.2354 18.9208 11.2354 19.4354Z" fill="#AD9B91" stroke="#AD9B91"/>
<path d="M17.5506 19.4354C17.5506 18.7262 18.1375 18.1369 18.8828 18.1369C19.6281 18.1369 20.215 18.7262 20.215 19.4354C20.215 20.1447 19.6281 20.734 18.8828 20.734C18.1375 20.734 17.5506 20.1447 17.5506 19.4354ZM17.9555 19.4354C17.9555 19.9501 18.3813 20.3549 18.8828 20.3549C19.3843 20.3549 19.8101 19.9501 19.8101 19.4354C19.8101 18.9208 19.3843 18.516 18.8828 18.516C18.3813 18.516 17.9555 18.9207 17.9555 19.4354Z" fill="#AD9B91" stroke="#AD9B91"/>
</svg>
